<svg width="40" height="40" viewBox="0 0 40 40" xmlns="http://www.w3.org/2000/svg">
    <defs>
        <linearGradient id="blueGradient" x1="0%" y1="0%" x2="100%" y2="0%">
            <stop offset="0%" stop-color="#4A90E2"/>
            <stop offset="100%" stop-color="#0057B8"/>
        </linearGradient>
    </defs>
    <g transform="translate(2,2)">
        <!-- Left Wing -->
        <path d="M10 12 Q2 4 6 16 Q4 24 12 18" fill="url(#blueGradient)" />
        <!-- Right Wing -->
        <path d="M26 12 Q34 4 30 16 Q32 24 24 18" fill="url(#blueGradient)" />
        <!-- Body -->
        <ellipse cx="18" cy="20" rx="6" ry="10" fill="url(#blueGradient)" />
        <!-- Tail Feathers -->
        <path d="M17 30 L16 35 L20 35 L19 30 Z" fill="#0057B8" />
        <!-- Head -->
        <circle cx="18" cy="12" r="5" fill="url(#blueGradient)" />
        <!-- Eye -->
        <circle cx="20" cy="11" r="1.2" fill="#fff"/>
        <circle cx="20" cy="11" r="0.6" fill="#000"/>
        <!-- Beak -->
        <polygon points="23,12 28,13 23,14" fill="#222" />
        <!-- Crest -->
        <path d="M16,7 Q18,4 20,7" fill="#0057B8" />
    </g>
</svg>